HIERARCHY
ROOT Hips
{
	OFFSET 0.00 0.00 0.00
	CHANNELS 6 Xposition Yposition Zposition Xrotation Yrotation Zrotation
	JOINT Spine
	{
		OFFSET 0.00000 4.88528 0.00000
		CHANNELS 3 Xrotation Yrotation Zrotation
		JOINT Head
		{
			OFFSET 0.00000 16.49416 0.00000
			CHANNELS 3 Xrotation Yrotation Zrotation
			End Site
			{
				OFFSET 0.00000 4.52755 0.00000
			}
		}
		JOINT LeftShoulder
		{
			OFFSET 0.00000 10.66345 0.00000
			CHANNELS 3 Xrotation Yrotation Zrotation
			JOINT LeftArm
			{
				OFFSET 7.53191 0.00000 0.00000
				CHANNELS 3 Xrotation Yrotation Zrotation
				JOINT LeftForeArm
				{
					OFFSET 10.22920 0.00000 0.00000
					CHANNELS 3 Yrotation Zrotation Xrotation
					JOINT LeftHand
					{
						OFFSET 8.67349 0.00000 0.00000
						CHANNELS 3 Xrotation Yrotation Zrotation
						JOINT LeftHandThumb1
						{
							OFFSET 0.00000 0.00000 0.00000
							CHANNELS 3 Xrotation Zrotation Yrotation
							End Site
							{
								OFFSET 0.00000 0.00000 3.93700
							}
						}
						End Site
						{
							OFFSET 3.93700 0.00000 0.00000
						}
					}
				}
			}
		}
		JOINT RightShoulder
		{
			OFFSET 0.00000 10.66345 0.00000
			CHANNELS 3 Xrotation Yrotation Zrotation
			JOINT RightArm
			{
				OFFSET -7.53191 0.00000 0.00000
				CHANNELS 3 Xrotation Yrotation Zrotation
				JOINT RightForeArm
				{
					OFFSET -10.22920 0.00000 0.00000
					CHANNELS 3 Yrotation Zrotation Xrotation
					JOINT RightHand
					{
						OFFSET -8.67349 0.00000 0.00000
						CHANNELS 3 Xrotation Yrotation Zrotation
						JOINT RightHandThumb1
						{
							OFFSET 0.00000 0.00000 0.00000
							CHANNELS 3 Xrotation Zrotation Yrotation
							End Site
							{
								OFFSET 0.00000 0.00000 3.93700
							}
						}
						End Site
						{
							OFFSET -3.93700 0.00000 0.00000
						}
					}
				}
			}
		}
	}
	JOINT LeftUpLeg
	{
		OFFSET 2.67219 0.00000 0.00000
		CHANNELS 3 Xrotation Yrotation Zrotation
		JOINT LeftLeg
		{
			OFFSET 0.00000 -16.26339 0.00000
			CHANNELS 3 Xrotation Yrotation Zrotation
			JOINT LeftFoot
			{
				OFFSET 0.00000 -14.32816 0.00000
				CHANNELS 3 Xrotation Yrotation Zrotation
				JOINT LeftToeBase
				{
					OFFSET 0.00000 -1.30219 4.85985
					CHANNELS 3 Xrotation Yrotation Zrotation
					End Site
					{
						OFFSET 0.00000 0.00000 2.95275
					}
				}
			}
		}
	}
	JOINT RightUpLeg
	{
		OFFSET -2.67219 0.00000 0.00000
		CHANNELS 3 Xrotation Yrotation Zrotation
		JOINT RightLeg
		{
			OFFSET 0.00000 -16.26339 0.00000
			CHANNELS 3 Xrotation Yrotation Zrotation
			JOINT RightFoot
			{
				OFFSET 0.00000 -14.32816 0.00000
				CHANNELS 3 Xrotation Yrotation Zrotation
				JOINT RightToeBase
				{
					OFFSET 0.00000 -1.30219 4.85985
					CHANNELS 3 Xrotation Yrotation Zrotation
					End Site
					{
						OFFSET 0.00000 0.00000 2.95275
					}
				}
			}
		}
	}
}
MOTION
Frames: 22
Frame Time: 0.008333
 22.4862 32.6077 5.5074 85.1777 -57.3730 83.9913 -2.1506 -5.4044 -0.5768 -5.9001 -1.5795 4.8412 21.1990 8.3226 27.4202 -92.2294 -13.3657 -87.9243 -32.7032 0.0000 -46.9694 -2.7095 -9.0298 -16.7795 33.1476 -0.0000 26.2537 -16.7920 14.9862 -23.6579 -45.6069 6.6541 89.1195 38.6129 -0.0000 -41.0098 -1.9383 7.1627 15.1850 32.8623 0.0000 -24.3270 -38.3154 -0.9389 -1.5806 -0.1966 -0.0000 -0.0000 4.7809 10.0225 -11.5537 -9.7928 -0.0000 -0.0000 -45.4141 2.7119 3.3594 11.2695 -0.0000 0.0000 1.2964 -12.3378 1.5123 -5.5294 0.0000 0.0000
 22.5534 32.6026 5.5019 85.2070 -56.9367 84.0079 -2.1213 -5.3592 -0.5650 -6.3301 -1.6429 4.8977 21.0096 8.3195 27.6669 -92.6437 -12.7789 -87.7785 -32.9875 0.0000 -47.7988 -2.8009 -9.1534 -17.0950 33.1476 -0.0000 26.2537 -17.0813 15.1657 -23.6289 -45.5665 6.4173 88.7650 39.2771 -0.0000 -42.6723 -1.9474 7.3379 14.9071 32.8623 0.0000 -24.3270 -38.9235 -1.3333 -1.6103 -0.1058 -0.0000 -0.0000 4.8134 10.3857 -11.3278 -9.8219 0.0000 0.0000 -45.7615 2.6416 3.3378 10.8417 -0.0000 0.0000 1.5298 -12.3016 1.4486 -5.4368 -0.0000 -0.0000
 22.6201 32.5953 5.4939 85.2471 -56.4948 84.0297 -2.1069 -5.3332 -0.5541 -6.7171 -1.6906 4.9551 20.7986 8.3642 27.9214 -92.9991 -12.2430 -87.6986 -33.1567 0.0000 -48.3996 -2.8101 -8.8731 -17.6523 33.1476 -0.0000 26.2537 -17.4168 15.3617 -23.5716 -45.4751 6.2606 88.4858 39.8159 -0.0000 -44.2213 -1.9899 7.7869 14.3826 32.8623 0.0000 -24.3270 -39.5667 -1.6701 -1.6213 0.0572 0.0000 0.0000 4.7775 10.6600 -11.2030 -9.8055 -0.0000 -0.0000 -46.1328 2.5414 3.3245 10.4583 0.0000 0.0000 1.7185 -12.2440 1.4609 -5.1707 -0.0000 -0.0000
 22.6847 32.5851 5.4885 85.2531 -56.0911 84.0564 -2.0528 -5.3273 -0.5668 -7.1154 -1.7140 4.9771 20.5485 8.3973 28.1261 -93.3364 -11.7984 -87.6465 -33.1401 0.0000 -48.9003 -2.8678 -8.9273 -17.8906 33.1476 -0.0000 26.2537 -17.7135 15.5504 -23.5307 -45.3832 6.1616 88.2300 40.2840 -0.0000 -45.3566 -1.9957 7.9519 14.1375 32.8623 0.0000 -24.3270 -40.1685 -2.0479 -1.6758 0.2204 0.0000 0.0000 4.7118 11.0136 -11.0696 -9.6874 0.0000 0.0000 -46.5197 2.3692 3.2713 10.2082 -0.0000 -0.0000 1.8583 -12.1028 1.3805 -5.0998 -0.0000 -0.0000
 22.7483 32.5748 5.4818 85.2686 -55.6766 84.0726 -2.0158 -5.3346 -0.5644 -7.4903 -1.7467 5.0225 20.1975 8.3878 28.3696 -93.4854 -11.3229 -87.6354 -33.0313 0.0000 -49.1282 -2.9255 -9.0394 -18.0181 33.1476 -0.0000 26.2537 -17.9867 15.7243 -23.4491 -45.2912 6.1909 87.9762 40.6495 -0.0000 -46.2006 -1.9929 8.0564 13.9436 32.8623 0.0000 -24.3270 -40.7888 -2.3324 -1.7110 0.4101 0.0000 0.0000 4.6194 11.2636 -10.9668 -9.5882 0.0000 -0.0000 -46.8773 2.3193 3.2416 9.8615 0.0000 -0.0000 2.0219 -12.0748 1.3639 -4.9985 -0.0000 0.0000
 22.8110 32.5633 5.4742 85.2050 -55.2797 84.0083 -1.9593 -5.3725 -0.5427 -7.8432 -1.7961 5.0477 19.8920 8.3649 28.5683 -93.6663 -10.8137 -87.6751 -32.7644 0.0000 -49.0244 -2.9464 -9.0906 -18.0440 33.1476 -0.0000 26.2537 -18.2119 15.8901 -23.3881 -45.1674 6.2158 87.7611 40.9498 -0.0000 -46.6078 -1.9915 8.1948 13.7093 32.8623 0.0000 -24.3270 -41.3712 -2.6938 -1.7642 0.5701 0.0000 0.0000 4.5596 11.5032 -10.7367 -9.6595 -0.0000 -0.0000 -47.2557 2.1307 3.1865 9.6276 0.0000 -0.0000 2.1572 -11.9676 1.3532 -4.9038 0.0000 0.0000
 22.8717 32.5503 5.4657 85.1354 -54.8923 83.9536 -1.9066 -5.4182 -0.5384 -8.1717 -1.8412 5.0689 19.5558 8.2886 28.7298 -93.6579 -10.6870 -87.6380 -32.5361 0.0000 -48.9291 -2.9499 -9.2592 -17.7584 33.1476 -0.0000 26.2537 -18.3634 16.0214 -23.3355 -45.0469 6.3497 87.5758 41.1915 -0.0000 -46.7324 -2.0045 8.4809 13.3505 32.8623 0.0000 -24.3270 -41.9302 -3.0582 -1.8318 0.6933 -0.0000 0.0000 4.5186 11.7779 -10.5353 -9.6833 0.0000 0.0000 -47.6249 2.0365 3.1192 9.4026 -0.0000 0.0000 2.2692 -11.8959 1.3667 -4.8398 -0.0000 -0.0000
 22.9280 32.5366 5.4591 85.0808 -54.5714 83.9487 -1.7993 -5.4285 -0.5822 -8.4733 -1.8949 5.1133 18.9944 8.0796 28.9013 -93.3928 -10.5668 -87.6768 -32.1194 0.0000 -48.5296 -2.9250 -9.3939 -17.3824 33.1476 -0.0000 26.2537 -18.4399 16.0991 -23.2608 -44.9276 6.5780 87.4004 41.3784 -0.0000 -46.5354 -1.9783 8.6477 12.9381 32.8623 0.0000 -24.3270 -42.4109 -3.3497 -1.9252 0.8164 -0.0000 0.0000 4.4490 12.0092 -10.3296 -9.5902 0.0000 0.0000 -47.9506 1.9176 3.0299 9.2346 -0.0000 0.0000 2.3176 -11.7728 1.3910 -4.7067 -0.0000 -0.0000
 22.9807 32.5238 5.4515 84.9748 -54.2608 83.8696 -1.6881 -5.4138 -0.5898 -8.7305 -2.0046 5.1345 18.7042 7.9045 29.0602 -93.2812 -10.3865 -87.7381 -31.7125 0.0000 -47.6477 -2.8652 -9.5402 -16.8027 33.1476 -0.0000 26.2537 -18.4657 16.1131 -23.2022 -44.7632 6.8523 87.2456 41.5032 -0.0000 -45.6823 -1.9126 8.5568 12.6499 32.8623 0.0000 -24.3270 -42.8899 -3.5923 -2.0046 0.9687 -0.0000 -0.0000 4.3040 12.2212 -10.3686 -9.2839 -0.0000 -0.0000 -48.2492 1.8176 2.9475 9.0398 0.0000 -0.0000 2.3990 -11.7236 1.3813 -4.6492 -0.0000 -0.0000
 23.0325 32.5118 5.4432 84.8367 -53.9177 83.7264 -1.6096 -5.4527 -0.5388 -8.9928 -2.0909 5.1347 18.5853 7.8294 29.1510 -93.2568 -10.3257 -87.7995 -31.2560 0.0000 -46.7265 -2.7973 -9.8981 -15.8677 33.1476 -0.0000 26.2537 -18.4168 16.1283 -23.1808 -44.5496 7.1113 87.1494 41.6396 -0.0000 -44.4943 -1.8087 8.4719 12.0980 32.8623 0.0000 -24.3270 -43.3837 -3.9426 -2.0671 1.0895 0.0000 0.0000 4.2322 12.4660 -10.3411 -9.2983 -0.0000 -0.0000 -48.5839 1.7259 2.8834 8.8599 -0.0000 0.0000 2.4718 -11.7285 1.3713 -4.5418 -0.0000 -0.0000
 23.0820 32.4997 5.4411 84.6989 -53.5833 83.6193 -1.5339 -5.4656 -0.5239 -9.2428 -2.1951 5.1582 18.4874 7.7523 29.2980 -93.1034 -10.1879 -87.9423 -30.8496 0.0000 -45.3024 -2.7129 -10.1342 -15.0720 33.1476 -0.0000 26.2537 -18.1285 15.9229 -23.1271 -44.5396 7.8684 86.9881 41.7833 -0.0000 -43.0452 -1.7375 8.6833 11.3608 32.8623 0.0000 -24.3270 -43.8588 -4.2284 -2.1647 1.2005 -0.0000 -0.0000 4.1496 12.6808 -10.3351 -9.1058 -0.0000 -0.0000 -48.9414 1.6240 2.7860 8.7614 -0.0000 0.0000 2.5136 -11.6791 1.2801 -4.5279 0.0000 0.0000
 23.1319 32.4893 5.4285 84.5694 -53.2125 83.4590 -1.4851 -5.4954 -0.4528 -9.5219 -2.2862 5.1496 18.4745 7.7800 29.3878 -92.9733 -10.2783 -88.1319 -30.4442 0.0000 -43.8903 -2.5685 -10.1791 -14.2427 33.1476 -0.0000 26.2537 -18.0099 15.8453 -23.1245 -44.2293 8.1922 87.0306 41.9133 0.0000 -40.7185 -1.6607 8.8654 10.6542 32.8623 0.0000 -24.3270 -44.3960 -4.4483 -2.1944 1.3769 -0.0000 -0.0000 4.0296 12.7367 -10.3822 -8.9254 -0.0000 -0.0000 -49.3485 1.5444 2.7597 8.6743 0.0000 -0.0000 2.6254 -11.7137 1.1430 -4.6870 0.0000 -0.0000
 23.1747 32.4804 5.4174 84.5240 -52.8668 83.4449 -1.4316 -5.5077 -0.4702 -9.8107 -2.3401 5.1530 18.5891 7.8687 29.4156 -92.8171 -10.5765 -88.2827 -30.0397 0.0000 -42.2563 -2.4869 -10.3351 -13.6088 33.1476 -0.0000 26.2537 -17.8663 15.7812 -23.0960 -43.8319 8.6865 87.0678 42.0429 0.0000 -38.0336 -1.5397 8.8669 9.8920 32.8623 0.0000 -24.3270 -44.8846 -4.5618 -2.2460 1.5438 -0.0000 0.0000 3.9538 12.7292 -10.2590 -9.1250 0.0000 -0.0000 -49.7445 1.5970 2.7229 8.6318 0.0000 -0.0000 2.6802 -11.7845 1.0156 -4.7440 0.0000 0.0000
 23.2135 32.4705 5.4106 84.4466 -52.5446 83.4282 -1.3455 -5.5396 -0.4958 -10.1415 -2.3753 5.1379 18.7797 8.0447 29.4043 -92.6220 -10.8746 -88.4959 -29.7351 0.0000 -40.0948 -2.3461 -10.2395 -12.9785 33.1476 -0.0000 26.2537 -17.7197 15.7059 -23.0958 -43.3116 8.8795 87.2815 42.2513 0.0000 -34.4757 -1.3717 8.7780 8.9177 32.8623 0.0000 -24.3270 -45.3879 -4.5508 -2.3346 1.7984 -0.0000 0.0000 3.8061 12.6261 -10.2922 -9.0467 0.0000 0.0000 -50.1556 1.5551 2.6477 8.6953 0.0000 -0.0000 2.6533 -11.8063 0.9425 -4.7132 0.0000 -0.0000
 23.2525 32.4614 5.3974 84.4195 -52.1931 83.3569 -1.2768 -5.5333 -0.4164 -10.5329 -2.4228 5.0967 18.8664 8.0975 29.3750 -92.1981 -11.2386 -88.7029 -29.3866 0.0000 -37.7948 -2.2587 -10.1326 -12.6365 33.1476 -0.0000 26.2537 -17.4998 15.5381 -23.1168 -42.8077 9.2842 87.5099 42.4301 0.0000 -30.6648 -1.2155 8.5152 8.1543 32.8623 0.0000 -24.3270 -46.0178 -4.3039 -2.3243 2.2850 -0.0000 0.0000 3.5166 12.2105 -10.2935 -8.9779 0.0000 0.0000 -50.5614 1.5441 2.6591 8.6726 -0.0000 0.0000 2.6871 -11.8802 0.9892 -4.6299 -0.0000 -0.0000
 23.2930 32.4568 5.3885 84.3578 -51.8167 83.3336 -1.2304 -5.5728 -0.4100 -10.9152 -2.4395 5.0392 19.0817 8.2387 29.2641 -91.8370 -11.8395 -88.9179 -28.9594 0.0000 -35.4205 -2.1968 -10.0031 -12.4532 33.1476 -0.0000 26.2537 -17.2543 15.4382 -23.1145 -42.1511 9.4878 87.8078 42.7042 0.0000 -26.0870 -1.0258 8.2469 7.1151 32.8623 0.0000 -24.3270 -46.4957 -4.9077 -2.4061 2.3161 -0.0000 -0.0000 3.5095 12.7048 -10.2750 -8.7141 0.0000 0.0000 -51.0179 1.5970 2.6002 8.7042 0.0000 0.0000 2.7175 -11.9906 1.0181 -4.5163 -0.0000 -0.0000
 23.3268 32.4485 5.3807 84.3221 -51.4872 83.3375 -1.1539 -5.6142 -0.4090 -11.2797 -2.4358 5.0033 19.2598 8.3480 29.1408 -91.2726 -12.6686 -89.1159 -28.5381 0.0000 -33.0229 -2.1540 -10.0847 -12.1230 33.1476 -0.0000 26.2537 -16.9854 15.3047 -23.0994 -41.4338 9.9080 88.1076 42.8720 0.0000 -21.7460 -0.9217 8.1567 6.4693 32.8623 0.0000 -24.3270 -47.0570 -4.9430 -2.4783 2.6957 0.0000 -0.0000 3.2867 12.6037 -10.2042 -8.7601 0.0000 0.0000 -51.4701 1.5139 2.5383 8.8589 0.0000 -0.0000 2.6682 -11.9462 1.0789 -4.4631 0.0000 0.0000
 23.3576 32.4414 5.3757 84.2523 -51.1799 83.3317 -1.0495 -5.6833 -0.4135 -11.6606 -2.4040 4.9419 19.5279 8.4806 28.9631 -90.6021 -13.7883 -89.2434 -28.1875 0.0000 -30.4321 -2.1094 -10.0826 -11.8810 33.1476 -0.0000 26.2537 -16.6718 15.1638 -23.0579 -40.6852 10.4624 88.3629 42.9466 0.0000 -17.1261 -0.8080 7.9401 5.8298 32.8623 0.0000 -24.3270 -47.5581 -5.1966 -2.5858 2.9846 0.0000 -0.0000 3.1301 12.7295 -10.0892 -8.6836 0.0000 0.0000 -51.8784 1.4710 2.4449 8.9927 0.0000 0.0000 2.6105 -11.8985 1.1064 -4.4118 0.0000 0.0000
 23.3893 32.4342 5.3756 84.1821 -50.8216 83.3813 -1.0153 -5.7436 -0.4710 -12.0196 -2.3683 4.8683 19.7999 8.5651 28.7278 -89.8254 -15.3272 -89.3522 -27.8677 0.0000 -28.0316 -1.9175 -10.1233 -10.7843 33.1476 -0.0000 26.2537 -16.3305 14.9643 -23.0064 -39.9100 11.1351 88.6663 42.7942 0.0000 -12.6306 -0.7171 7.9760 5.1543 32.8623 0.0000 -24.3270 -48.1129 -5.4413 -2.7470 3.2591 0.0000 -0.0000 2.9999 12.9166 -10.0684 -8.6042 -0.0000 -0.0000 -52.3753 1.4501 2.2993 9.2028 0.0000 -0.0000 2.5134 -11.7962 1.1489 -4.4028 -0.0000 -0.0000
 23.4120 32.4274 5.3605 84.1128 -50.5637 83.2993 -0.8562 -5.7705 -0.4145 -12.3929 -2.3813 4.8401 20.1402 8.6811 28.4355 -89.0361 -16.9765 -89.5143 -27.4772 -0.0000 -25.5741 -1.7197 -9.8091 -9.9946 33.1476 -0.0000 26.2537 -15.9594 14.6841 -22.9068 -39.1225 11.9125 88.9768 42.3824 0.0000 -8.3245 -0.6533 8.2361 4.5513 32.8623 0.0000 -24.3270 -48.5558 -5.7395 -2.7795 3.5725 -0.0000 -0.0000 2.8068 12.9895 -9.9802 -8.5452 -0.0000 -0.0000 -52.7393 1.4092 2.2851 9.3634 -0.0000 0.0000 2.4756 -11.8137 1.1336 -4.4433 -0.0000 -0.0000
 23.4300 32.4168 5.3599 83.9837 -50.3028 83.2887 -0.7207 -5.8352 -0.4469 -12.7516 -2.4276 4.7381 20.6700 8.9272 28.0379 -88.3970 -18.8172 -89.6851 -26.9200 -0.0000 -23.1755 -1.6237 -9.6262 -9.6212 33.1476 -0.0000 26.2537 -15.4802 14.3262 -22.8506 -38.3893 12.8051 89.3155 41.7341 0.0000 -4.4115 -0.5717 8.6096 3.8135 32.8623 0.0000 -24.3270 -49.0231 -5.8893 -2.9601 3.9321 -0.0000 0.0000 2.5651 13.1141 -9.8440 -8.4178 0.0000 -0.0000 -53.1946 1.2776 2.1371 9.7428 0.0000 -0.0000 2.2835 -11.6869 1.0693 -4.5149 0.0000 0.0000
 23.4440 32.3978 5.3664 83.7369 -50.0063 83.3443 -0.6684 -5.9846 -0.6911 -13.0517 -2.4331 4.7496 21.2601 9.2112 27.7099 -87.6463 -20.5669 -89.8696 -26.3841 -0.0000 -20.7730 -1.5383 -9.4860 -9.2546 33.1476 -0.0000 26.2537 -14.8958 13.9051 -22.6834 -37.4712 14.3545 89.3728 41.2857 0.0000 -1.0395 -0.3964 8.7198 2.6133 32.8623 0.0000 -24.3270 -49.5054 -6.0089 -3.3181 4.2445 0.0000 0.0000 2.2688 13.3035 -9.7950 -7.9750 -0.0000 0.0000 -52.5724 4.4162 2.0016 7.6828 0.0000 -0.0000 2.6643 -14.5841 0.8197 -4.1926 0.0000 0.0000
